<svg width="24" height="24" viewBox="0 0 24 24" fill="none" xmlns="http://www.w3.org/2000/svg">
<path d="M22.0003 12C22.0003 12.0947 21.9734 12.1875 21.9227 12.2675C21.872 12.3475 21.7996 12.4115 21.714 12.452L3.71402 20.952C3.62412 20.9956 3.52318 21.0111 3.42434 20.9966C3.32549 20.982 3.2333 20.9381 3.15974 20.8705C3.08619 20.8028 3.03468 20.7147 3.0119 20.6174C2.98913 20.5201 2.99614 20.4182 3.03202 20.325L5.87402 12.698C6.0417 12.2477 6.0417 11.7522 5.87402 11.302L3.03102 3.67498C2.99495 3.58162 2.98785 3.47956 3.01064 3.3821C3.03343 3.28465 3.08505 3.19632 3.15878 3.12864C3.23251 3.06096 3.32492 3.01706 3.42396 3.00267C3.523 2.98828 3.62409 3.00407 3.71402 3.04798L21.714 11.548C21.7996 11.5885 21.872 11.6525 21.9227 11.7325C21.9734 11.8125 22.0003 11.9053 22.0003 12ZM22.0003 12H6.00002" stroke="#171717" stroke-width="2" stroke-linecap="round" stroke-linejoin="round"/>
</svg>
